<svg id="svg" version="1.1" xmlns="http://www.w3.org/2000/svg" xmlns:xlink="http://www.w3.org/1999/xlink" width="400" height="400" viewBox="0, 0, 400,400"><g id="svgg"><path id="path0" d="M177.509 159.557 C 177.478 159.589,176.923 159.616,176.276 159.618 C 173.976 159.626,171.392 160.017,167.700 160.917 C 164.823 161.619,164.090 161.830,163.911 162.009 C 163.806 162.114,163.592 162.200,163.435 162.200 C 163.137 162.200,161.422 162.893,159.680 163.717 C 159.119 163.983,158.598 164.200,158.523 164.200 C 158.035 164.200,152.889 167.430,150.700 169.111 C 147.679 171.430,145.901 173.260,139.825 180.300 C 133.828 187.247,131.933 189.433,129.526 192.171 C 128.110 193.782,126.626 195.505,126.227 196.000 C 125.828 196.495,124.601 197.926,123.501 199.180 C 122.400 200.434,121.231 201.784,120.902 202.180 C 120.574 202.576,118.954 204.445,117.302 206.333 C 115.651 208.221,113.671 210.503,112.903 211.403 C 112.134 212.303,111.317 213.233,111.086 213.470 C 106.806 217.853,102.164 226.229,100.704 232.200 C 100.556 232.805,100.301 233.840,100.137 234.500 C 99.101 238.679,98.699 246.470,99.333 250.100 C 99.486 250.980,99.699 252.309,99.806 253.053 C 100.176 255.640,101.976 261.374,103.087 263.504 C 103.258 263.832,103.398 264.167,103.399 264.248 C 103.400 264.384,105.172 267.567,106.100 269.097 C 109.075 274.007,115.778 280.684,120.358 283.300 C 120.551 283.410,120.976 283.690,121.304 283.921 C 121.632 284.153,122.485 284.628,123.200 284.977 C 123.915 285.326,124.635 285.696,124.800 285.798 C 125.088 285.977,126.148 286.448,128.300 287.354 C 129.310 287.779,131.449 288.434,134.200 289.159 C 135.489 289.499,137.296 289.799,140.200 290.154 C 144.359 290.663,152.836 290.075,155.647 289.083 C 156.089 288.927,156.668 288.800,156.933 288.800 C 157.199 288.800,157.750 288.631,158.158 288.424 C 158.566 288.218,159.215 287.989,159.600 287.915 C 160.860 287.674,165.549 285.577,167.700 284.293 C 168.140 284.031,168.762 283.668,169.082 283.486 C 172.990 281.273,176.816 277.730,182.930 270.664 C 184.817 268.484,187.128 265.816,188.065 264.735 C 190.166 262.312,190.471 261.713,190.363 260.220 C 190.231 258.405,190.145 258.320,183.619 253.647 C 182.584 252.906,181.279 251.962,180.719 251.549 C 175.458 247.672,175.338 247.723,167.497 257.200 C 165.341 259.806,161.289 263.792,159.871 264.702 C 159.227 265.116,158.475 265.603,158.200 265.786 C 157.743 266.089,156.625 266.637,154.500 267.597 C 150.255 269.516,140.624 270.049,137.649 268.529 C 137.347 268.375,136.789 268.181,136.408 268.099 C 135.786 267.965,134.828 267.559,133.700 266.953 C 133.480 266.834,133.120 266.641,132.900 266.523 C 129.912 264.923,125.261 260.570,123.980 258.175 C 122.229 254.900,121.151 252.093,120.572 249.300 C 120.271 247.848,120.374 241.230,120.719 239.900 C 120.890 239.240,121.146 238.202,121.287 237.594 C 121.429 236.986,121.692 236.203,121.872 235.854 C 122.052 235.505,122.200 235.095,122.200 234.943 C 122.200 234.550,124.155 230.783,124.616 230.287 C 124.827 230.060,125.000 229.810,125.000 229.731 C 125.000 229.653,125.371 229.118,125.824 228.544 C 126.684 227.454,127.381 226.642,132.559 220.689 C 134.286 218.702,137.005 215.565,138.600 213.717 C 141.509 210.347,145.823 205.368,149.000 201.717 C 151.491 198.853,151.824 198.049,151.265 196.238 C 150.553 193.928,147.540 192.910,145.660 194.344 C 145.005 194.844,141.080 199.254,137.725 203.258 C 136.969 204.161,135.214 206.197,133.825 207.781 C 128.601 213.743,126.851 215.756,125.204 217.700 C 123.469 219.747,123.286 219.958,121.300 222.200 C 120.152 223.496,119.876 223.871,118.233 226.377 C 114.174 232.568,112.111 241.347,113.013 248.590 C 113.376 251.508,114.913 257.290,115.515 258.000 C 115.655 258.165,115.835 258.564,115.915 258.887 C 115.996 259.209,116.273 259.784,116.531 260.165 C 116.789 260.545,117.000 260.929,117.000 261.018 C 117.000 261.107,117.293 261.599,117.650 262.110 C 118.008 262.622,118.390 263.189,118.500 263.370 C 119.813 265.529,124.159 269.834,126.700 271.491 C 127.690 272.137,128.744 272.830,129.042 273.033 C 129.340 273.235,129.656 273.400,129.745 273.400 C 129.833 273.400,130.220 273.568,130.603 273.774 C 131.859 274.447,135.250 275.688,136.700 276.004 C 143.779 277.551,149.092 277.307,155.600 275.135 C 162.076 272.974,167.110 269.308,172.639 262.726 C 176.888 257.668,176.700 257.818,177.735 258.660 C 178.046 258.914,178.817 259.458,179.448 259.870 C 181.380 261.130,181.419 260.975,178.254 264.561 C 176.729 266.287,175.329 267.922,175.142 268.194 C 174.252 269.484,170.542 273.183,168.851 274.467 C 164.882 277.478,161.534 279.352,158.000 280.541 C 157.505 280.707,156.812 280.971,156.459 281.127 C 156.106 281.283,155.297 281.507,154.660 281.624 C 154.023 281.742,153.337 281.927,153.136 282.034 C 152.489 282.380,147.582 282.894,144.900 282.896 C 139.812 282.901,134.248 281.823,130.232 280.054 C 128.079 279.105,126.158 278.122,125.000 277.377 C 122.278 275.623,121.659 275.175,120.275 273.956 C 119.491 273.265,118.521 272.447,118.120 272.137 C 117.718 271.828,117.190 271.277,116.945 270.912 C 116.700 270.547,115.884 269.540,115.130 268.674 C 114.377 267.809,113.470 266.650,113.115 266.100 C 111.687 263.887,111.698 263.905,110.887 262.358 C 110.698 261.996,110.466 261.543,110.371 261.350 C 110.277 261.157,110.121 260.843,110.024 260.650 C 109.366 259.338,108.000 255.774,108.000 255.367 C 108.000 255.188,107.816 254.446,107.591 253.717 C 107.366 252.989,107.092 251.652,106.982 250.746 C 106.259 244.772,106.252 244.604,106.578 241.600 C 106.961 238.073,107.180 236.672,107.494 235.747 C 107.667 235.240,107.891 234.437,107.992 233.962 C 108.217 232.916,108.887 230.992,109.413 229.887 C 109.626 229.440,109.800 228.977,109.800 228.860 C 109.800 228.585,112.302 224.089,112.894 223.299 C 113.142 222.969,113.587 222.339,113.883 221.899 C 114.179 221.460,115.364 220.020,116.516 218.700 C 117.669 217.380,119.622 215.129,120.856 213.697 C 125.972 207.763,126.969 206.611,128.595 204.759 C 129.533 203.692,130.885 202.127,131.600 201.282 C 132.315 200.438,133.395 199.188,134.000 198.505 C 134.605 197.823,135.820 196.423,136.700 195.395 C 137.580 194.367,139.110 192.600,140.100 191.469 C 142.170 189.104,145.254 185.543,148.220 182.095 C 151.260 178.559,153.713 176.232,156.905 173.857 C 159.259 172.105,163.653 169.933,167.000 168.867 C 167.495 168.710,168.305 168.450,168.800 168.289 C 174.059 166.586,183.673 166.589,188.800 168.296 C 189.295 168.460,190.532 168.870,191.549 169.206 C 192.566 169.542,193.646 169.940,193.949 170.090 C 194.252 170.239,195.175 170.692,196.000 171.096 C 197.338 171.751,199.034 172.753,200.724 173.887 C 201.041 174.100,201.930 174.784,202.700 175.407 C 204.491 176.857,205.172 177.200,206.266 177.200 C 209.248 177.200,211.062 174.048,209.522 171.543 C 208.178 169.357,199.351 163.898,194.450 162.222 C 194.093 162.100,193.553 161.913,193.250 161.808 C 191.832 161.312,189.194 160.600,188.771 160.599 C 188.512 160.598,187.535 160.411,186.600 160.183 C 185.132 159.826,177.748 159.317,177.509 159.557 " stroke="none" fill="#e50452" fill-rule="evenodd"></path><path id="path1" d="M185.400 19.197 C 185.400 19.320,183.254 19.414,179.650 19.447 L 173.900 19.500 173.836 19.950 C 173.773 20.397,173.750 20.400,170.267 20.400 C 166.931 20.400,166.758 20.419,166.658 20.800 C 166.560 21.176,166.384 21.200,163.727 21.203 C 162.172 21.205,161.008 21.275,161.139 21.358 C 161.874 21.825,160.983 22.101,158.514 22.170 C 156.269 22.234,156.002 22.279,155.894 22.620 C 155.786 22.960,155.561 23.000,153.765 23.000 C 152.062 23.000,151.775 23.046,151.872 23.300 C 151.942 23.483,151.873 23.600,151.694 23.600 C 151.532 23.600,151.400 23.690,151.400 23.800 C 151.400 23.919,150.667 24.000,149.600 24.000 C 147.945 24.000,147.800 24.032,147.800 24.392 C 147.800 24.748,147.635 24.790,146.050 24.842 C 144.408 24.896,144.296 24.928,144.236 25.350 C 144.176 25.771,144.075 25.800,142.674 25.800 C 141.725 25.800,141.222 25.873,141.300 26.000 C 141.494 26.314,140.488 26.600,139.187 26.600 C 138.054 26.600,138.000 26.623,138.000 27.100 C 138.000 27.583,137.955 27.600,136.681 27.600 C 135.531 27.600,135.349 27.651,135.258 28.000 C 135.166 28.350,134.985 28.400,133.795 28.400 C 132.571 28.400,132.447 28.436,132.535 28.771 C 132.636 29.158,131.885 29.393,130.531 29.398 C 130.132 29.399,129.931 29.519,129.858 29.800 C 129.767 30.147,129.585 30.200,128.477 30.200 C 127.363 30.200,127.200 30.248,127.200 30.574 C 127.200 30.955,126.420 31.193,125.150 31.198 C 124.734 31.199,124.600 31.298,124.600 31.600 C 124.600 31.946,124.467 32.000,123.606 32.000 C 122.837 32.000,122.637 32.063,122.720 32.280 C 122.869 32.668,122.509 32.843,121.426 32.909 C 120.917 32.940,120.388 32.973,120.250 32.983 C 120.113 32.992,120.000 33.180,120.000 33.400 C 120.000 33.741,119.867 33.800,119.100 33.800 C 118.333 33.800,118.200 33.859,118.200 34.200 C 118.200 34.514,118.060 34.605,117.550 34.621 C 117.192 34.633,116.765 34.663,116.600 34.687 C 116.435 34.712,116.142 34.747,115.950 34.766 C 115.745 34.786,115.600 34.965,115.600 35.200 C 115.600 35.540,115.467 35.600,114.714 35.600 C 113.947 35.600,113.819 35.661,113.764 36.050 C 113.709 36.438,113.597 36.492,112.948 36.441 C 112.301 36.390,112.170 36.453,112.003 36.891 C 111.840 37.320,111.683 37.400,111.005 37.400 C 110.333 37.400,110.200 37.466,110.200 37.800 C 110.200 38.081,110.066 38.201,109.750 38.203 C 108.904 38.208,108.400 38.440,108.400 38.823 C 108.400 39.135,108.249 39.200,107.523 39.200 C 106.838 39.200,106.625 39.281,106.550 39.570 C 106.484 39.824,106.193 39.982,105.627 40.073 C 104.979 40.176,104.800 40.291,104.800 40.602 C 104.800 40.940,104.665 41.000,103.900 41.000 C 103.133 41.000,103.000 41.059,103.000 41.400 C 103.000 41.709,102.867 41.800,102.416 41.800 C 101.573 41.800,101.200 41.990,101.200 42.421 C 101.200 42.736,101.050 42.800,100.314 42.800 C 99.547 42.800,99.419 42.861,99.364 43.250 C 99.308 43.640,99.194 43.694,98.500 43.655 C 98.060 43.630,97.813 43.660,97.950 43.721 C 98.308 43.882,98.260 44.266,97.900 44.128 C 97.717 44.058,97.600 44.127,97.600 44.306 C 97.600 44.483,97.409 44.600,97.122 44.600 C 96.796 44.600,96.653 44.707,96.672 44.939 C 96.692 45.184,96.470 45.325,95.871 45.446 C 95.302 45.562,95.011 45.738,94.940 46.008 C 94.860 46.315,94.664 46.400,94.033 46.400 C 93.350 46.400,93.218 46.468,93.164 46.850 C 93.122 47.145,92.963 47.300,92.700 47.300 C 92.470 47.300,92.253 47.470,92.190 47.700 C 92.081 48.099,91.992 48.133,90.950 48.177 C 90.541 48.194,90.400 48.303,90.400 48.600 C 90.400 48.893,90.267 49.000,89.900 49.000 C 89.589 49.000,89.400 49.113,89.400 49.300 C 89.400 49.467,89.222 49.600,89.000 49.600 C 88.780 49.600,88.600 49.690,88.600 49.800 C 88.600 49.910,88.420 50.000,88.200 50.000 C 87.933 50.000,87.800 50.133,87.800 50.400 C 87.800 50.681,87.666 50.801,87.350 50.803 C 86.504 50.808,86.000 51.040,86.000 51.423 C 86.000 51.692,85.856 51.800,85.500 51.800 C 85.133 51.800,85.000 51.907,85.000 52.200 C 85.000 52.493,84.867 52.600,84.500 52.600 C 84.189 52.600,84.000 52.713,84.000 52.900 C 84.000 53.067,83.822 53.200,83.600 53.200 C 83.380 53.200,83.200 53.290,83.200 53.400 C 83.200 53.510,83.020 53.600,82.800 53.600 C 82.533 53.600,82.400 53.733,82.400 54.000 C 82.400 54.293,82.267 54.400,81.900 54.400 C 81.541 54.400,81.400 54.508,81.400 54.782 C 81.400 55.069,81.210 55.197,80.643 55.293 C 80.131 55.379,79.824 55.563,79.693 55.860 C 79.587 56.102,79.365 56.300,79.200 56.300 C 79.035 56.300,78.851 56.480,78.790 56.700 C 78.719 56.960,78.508 57.101,78.190 57.104 C 77.892 57.106,77.700 57.224,77.700 57.404 C 77.700 57.567,77.565 57.700,77.400 57.700 C 77.235 57.700,77.028 57.813,76.940 57.950 C 76.852 58.087,76.660 58.200,76.513 58.200 C 76.367 58.200,76.200 58.380,76.142 58.600 C 76.079 58.839,75.869 59.000,75.619 59.000 C 75.333 59.000,75.200 59.127,75.200 59.400 C 75.200 59.693,75.067 59.800,74.700 59.800 C 74.324 59.800,74.200 59.905,74.200 60.223 C 74.200 60.531,74.103 60.621,73.844 60.554 C 73.648 60.502,73.373 60.584,73.232 60.735 C 73.091 60.885,72.891 60.956,72.788 60.893 C 72.685 60.829,72.600 60.952,72.600 61.167 C 72.600 61.570,72.103 61.887,71.782 61.689 C 71.682 61.627,71.600 61.807,71.600 62.088 C 71.600 62.456,71.494 62.600,71.223 62.600 C 71.015 62.600,70.800 62.779,70.742 63.000 C 70.682 63.230,70.469 63.400,70.242 63.400 C 70.015 63.400,69.802 63.570,69.742 63.800 C 69.682 64.031,69.469 64.200,69.240 64.200 C 69.022 64.200,68.792 64.333,68.729 64.497 C 68.666 64.660,68.499 64.749,68.356 64.694 C 68.214 64.639,68.008 64.788,67.899 65.025 C 67.789 65.261,67.620 65.420,67.523 65.377 C 67.426 65.335,67.271 65.502,67.179 65.750 C 67.082 66.014,66.845 66.200,66.606 66.200 C 66.327 66.200,66.200 66.331,66.200 66.619 C 66.200 66.869,66.039 67.079,65.800 67.142 C 65.580 67.200,65.400 67.371,65.400 67.523 C 65.400 67.791,65.167 67.882,64.650 67.815 C 64.507 67.796,64.400 68.000,64.400 68.291 C 64.400 68.667,64.295 68.800,64.000 68.800 C 63.733 68.800,63.600 68.933,63.600 69.200 C 63.600 69.581,63.407 69.687,62.850 69.615 C 62.713 69.597,62.600 69.766,62.600 69.991 C 62.600 70.259,62.469 70.400,62.222 70.400 C 61.981 70.400,61.796 70.589,61.713 70.921 C 61.614 71.315,61.486 71.417,61.191 71.340 C 60.883 71.259,60.800 71.340,60.800 71.719 C 60.800 72.057,60.688 72.200,60.422 72.200 C 60.185 72.200,59.996 72.387,59.918 72.700 C 59.840 73.010,59.650 73.200,59.420 73.200 C 59.207 73.200,58.999 73.384,58.935 73.626 C 58.864 73.899,58.718 74.011,58.528 73.939 C 58.366 73.876,58.183 73.955,58.123 74.113 C 58.062 74.271,57.873 74.400,57.701 74.400 C 57.530 74.400,57.301 74.634,57.192 74.920 C 57.071 75.239,56.888 75.400,56.719 75.335 C 56.537 75.265,56.405 75.427,56.327 75.815 C 56.258 76.160,56.083 76.400,55.900 76.400 C 55.716 76.400,55.541 76.643,55.470 77.000 C 55.390 77.401,55.230 77.600,54.989 77.600 C 54.767 77.600,54.603 77.773,54.564 78.050 C 54.522 78.345,54.363 78.500,54.100 78.500 C 53.837 78.500,53.678 78.655,53.636 78.950 C 53.595 79.239,53.434 79.400,53.186 79.400 C 52.933 79.400,52.800 79.538,52.800 79.800 C 52.800 80.168,52.629 80.277,52.252 80.150 C 52.171 80.123,52.057 80.370,52.001 80.700 C 51.927 81.130,51.770 81.318,51.449 81.364 C 51.161 81.405,51.000 81.566,51.000 81.814 C 51.000 82.062,50.862 82.200,50.614 82.200 C 50.366 82.200,50.205 82.361,50.164 82.650 C 50.123 82.939,49.939 83.123,49.650 83.164 C 49.353 83.206,49.200 83.365,49.200 83.633 C 49.200 83.865,49.035 84.081,48.811 84.139 C 48.597 84.195,48.395 84.434,48.361 84.670 C 48.318 84.971,48.164 85.095,47.850 85.084 C 47.514 85.072,47.400 85.181,47.400 85.510 C 47.400 85.959,46.955 86.489,46.751 86.284 C 46.689 86.222,46.577 86.448,46.503 86.786 C 46.410 87.211,46.250 87.400,45.984 87.400 C 45.704 87.400,45.600 87.540,45.600 87.919 C 45.600 88.264,45.470 88.471,45.211 88.539 C 44.997 88.595,44.795 88.834,44.761 89.070 C 44.723 89.339,44.532 89.524,44.250 89.564 C 43.924 89.610,43.800 89.762,43.800 90.114 C 43.800 90.548,43.611 90.696,43.150 90.624 C 43.068 90.611,42.999 90.802,42.997 91.050 C 42.993 91.689,42.694 92.079,42.320 91.935 C 42.071 91.840,42.000 91.944,42.000 92.406 C 42.000 92.860,41.909 93.000,41.613 93.000 C 41.340 93.000,41.208 93.161,41.163 93.550 C 41.114 93.974,40.997 94.096,40.650 94.084 C 40.282 94.071,40.200 94.175,40.200 94.653 C 40.200 95.064,40.084 95.268,39.811 95.339 C 39.574 95.401,39.399 95.647,39.361 95.970 C 39.318 96.344,39.167 96.519,38.850 96.564 C 38.519 96.611,38.400 96.761,38.400 97.133 C 38.400 97.469,38.267 97.672,38.000 97.742 C 37.759 97.805,37.599 98.016,37.597 98.273 C 37.593 98.891,37.289 99.277,36.920 99.135 C 36.671 99.040,36.600 99.144,36.600 99.606 C 36.600 100.067,36.510 100.200,36.200 100.200 C 35.895 100.200,35.800 100.333,35.800 100.760 C 35.800 101.399,35.474 101.816,35.089 101.668 C 34.913 101.600,34.807 101.784,34.764 102.234 C 34.717 102.724,34.608 102.893,34.350 102.872 C 34.110 102.853,34.000 102.989,34.000 103.306 C 34.000 104.030,33.790 104.400,33.379 104.400 C 33.091 104.400,33.000 104.545,33.000 105.000 C 33.000 105.467,32.911 105.600,32.600 105.600 C 32.276 105.600,32.200 105.733,32.200 106.305 C 32.200 106.867,32.102 107.047,31.714 107.195 C 31.389 107.318,31.207 107.564,31.164 107.940 C 31.126 108.276,30.980 108.500,30.800 108.500 C 30.600 108.500,30.467 108.767,30.400 109.300 C 30.333 109.833,30.200 110.100,30.000 110.100 C 29.831 110.100,29.608 110.405,29.489 110.800 C 29.349 111.264,29.163 111.491,28.939 111.472 C 28.687 111.452,28.599 111.606,28.597 112.072 C 28.593 112.824,28.329 113.303,28.022 113.114 C 27.882 113.027,27.800 113.159,27.800 113.472 C 27.800 114.229,27.596 114.600,27.179 114.600 C 26.877 114.600,26.800 114.747,26.800 115.319 C 26.800 115.869,26.706 116.062,26.400 116.142 C 26.120 116.215,26.000 116.415,26.000 116.807 C 26.000 117.628,25.806 118.000,25.379 118.000 C 25.077 118.000,25.000 118.147,25.000 118.719 C 25.000 119.269,24.906 119.462,24.600 119.542 C 24.359 119.605,24.199 119.816,24.197 120.073 C 24.192 120.966,23.959 121.436,23.572 121.335 C 23.250 121.251,23.200 121.358,23.200 122.137 C 23.200 122.869,23.125 123.057,22.800 123.142 C 22.537 123.211,22.400 123.415,22.400 123.736 C 22.400 124.429,22.024 125.052,21.685 124.922 C 21.460 124.836,21.400 125.042,21.400 125.906 C 21.400 126.856,21.349 127.000,21.011 127.000 C 20.689 127.000,20.611 127.163,20.561 127.950 C 20.507 128.789,20.448 128.898,20.050 128.884 C 19.642 128.870,19.600 128.960,19.600 129.853 C 19.600 130.669,19.532 130.855,19.200 130.942 C 18.908 131.018,18.799 131.216,18.797 131.673 C 18.793 132.748,18.585 133.243,18.182 133.137 C 17.867 133.055,17.811 133.194,17.759 134.171 C 17.710 135.103,17.639 135.295,17.350 135.272 C 17.063 135.249,16.999 135.412,16.997 136.172 C 16.993 137.255,16.769 137.708,16.320 137.535 C 16.047 137.431,16.000 137.602,16.000 138.706 C 16.000 139.867,15.959 140.000,15.600 140.000 C 15.250 140.000,15.200 140.133,15.200 141.060 C 15.200 142.153,14.950 142.645,14.485 142.467 C 14.283 142.389,14.205 142.693,14.160 143.732 C 14.109 144.892,14.047 145.096,13.750 145.072 C 13.451 145.049,13.400 145.226,13.400 146.282 C 13.400 147.538,13.168 148.052,12.684 147.866 C 12.479 147.787,12.404 148.123,12.359 149.332 C 12.308 150.682,12.251 150.896,11.950 150.872 C 11.649 150.848,11.600 151.031,11.597 152.172 C 11.594 153.628,11.406 154.122,10.928 153.938 C 10.660 153.836,10.606 154.085,10.557 155.659 C 10.507 157.270,10.456 157.497,10.150 157.472 C 9.843 157.448,9.800 157.646,9.800 159.106 C 9.800 161.023,9.699 161.400,9.186 161.400 C 8.853 161.400,8.808 161.604,8.757 163.350 C 8.707 165.065,8.658 165.297,8.350 165.272 C 8.035 165.247,8.000 165.476,8.000 167.535 C 8.000 169.737,7.793 170.743,7.390 170.494 C 7.274 170.422,7.192 171.340,7.180 172.838 C 7.158 175.557,7.024 176.311,6.568 176.277 C 6.176 176.249,6.001 183.178,6.000 198.717 C 6.000 213.448,6.185 221.593,6.517 221.466 C 7.017 221.274,7.200 222.191,7.200 224.899 C 7.200 226.568,7.274 227.578,7.390 227.506 C 7.791 227.258,8.000 228.259,8.003 230.437 C 8.005 231.804,8.075 232.591,8.181 232.424 C 8.585 231.787,8.800 232.478,8.800 234.412 C 8.800 236.229,8.833 236.400,9.179 236.400 C 9.699 236.400,9.800 236.771,9.800 238.694 C 9.800 240.154,9.843 240.352,10.150 240.328 C 10.455 240.304,10.507 240.526,10.558 242.050 C 10.609 243.600,10.658 243.800,10.986 243.800 C 11.483 243.800,11.600 244.179,11.600 245.794 C 11.600 246.968,11.648 247.152,11.950 247.128 C 12.249 247.104,12.309 247.313,12.359 248.568 C 12.407 249.748,12.475 250.014,12.706 249.925 C 13.122 249.766,13.400 250.422,13.400 251.564 C 13.400 252.385,13.468 252.571,13.800 252.658 C 14.149 252.749,14.200 252.931,14.200 254.075 C 14.200 255.196,14.247 255.370,14.520 255.265 C 14.980 255.088,15.193 255.550,15.197 256.727 C 15.199 257.584,15.266 257.771,15.600 257.858 C 15.945 257.948,16.000 258.131,16.000 259.175 C 16.000 260.205,16.048 260.369,16.320 260.265 C 16.769 260.092,16.993 260.545,16.997 261.627 C 16.999 262.384,17.073 262.572,17.400 262.658 C 17.742 262.747,17.800 262.932,17.803 263.931 C 17.805 264.780,17.861 265.018,18.007 264.800 C 18.315 264.339,18.800 265.096,18.800 266.038 C 18.800 266.667,18.870 266.800,19.200 266.800 C 19.551 266.800,19.600 266.933,19.600 267.881 C 19.600 268.837,19.643 268.951,19.972 268.865 C 20.373 268.760,20.592 269.238,20.597 270.227 C 20.599 270.584,20.729 270.787,21.000 270.858 C 21.334 270.945,21.400 271.131,21.400 271.975 C 21.400 272.821,21.453 272.967,21.720 272.865 C 22.143 272.702,22.393 273.132,22.397 274.028 C 22.399 274.597,22.476 274.750,22.750 274.728 C 23.031 274.705,23.112 274.889,23.161 275.655 C 23.197 276.220,23.303 276.560,23.420 276.488 C 23.770 276.271,24.200 276.830,24.200 277.501 C 24.200 277.985,24.303 278.180,24.600 278.258 C 24.917 278.341,25.000 278.531,25.000 279.175 C 25.000 279.838,25.059 279.965,25.320 279.865 C 25.727 279.708,25.993 280.125,25.997 280.927 C 25.999 281.384,26.108 281.582,26.400 281.658 C 26.716 281.741,26.800 281.931,26.800 282.563 C 26.800 283.260,26.850 283.349,27.194 283.259 C 27.524 283.173,27.609 283.285,27.716 283.952 C 27.807 284.521,27.937 284.742,28.171 284.724 C 28.419 284.706,28.515 284.906,28.561 285.540 C 28.605 286.152,28.696 286.351,28.896 286.274 C 29.152 286.176,29.637 286.792,29.579 287.142 C 29.510 287.554,29.633 287.762,30.000 287.858 C 30.291 287.934,30.400 288.131,30.400 288.581 C 30.400 289.067,30.486 289.200,30.800 289.200 C 31.112 289.200,31.200 289.333,31.200 289.805 C 31.200 290.266,31.319 290.455,31.700 290.600 C 32.099 290.752,32.200 290.929,32.200 291.473 C 32.200 291.999,32.280 292.149,32.548 292.128 C 32.801 292.108,32.924 292.292,32.998 292.800 C 33.054 293.185,33.190 293.501,33.300 293.503 C 33.708 293.509,34.000 293.837,34.000 294.288 C 34.000 294.585,34.145 294.791,34.400 294.858 C 34.689 294.933,34.800 295.131,34.800 295.567 C 34.800 296.042,34.897 296.186,35.250 296.236 C 35.574 296.282,35.728 296.468,35.800 296.900 C 35.859 297.256,36.022 297.500,36.200 297.500 C 36.391 297.500,36.522 297.732,36.562 298.138 C 36.608 298.618,36.732 298.791,37.062 298.838 C 37.372 298.882,37.519 299.061,37.563 299.450 C 37.608 299.839,37.740 300.000,38.013 300.000 C 38.324 300.000,38.400 300.142,38.400 300.721 C 38.400 301.252,38.473 301.415,38.676 301.337 C 39.050 301.193,39.400 301.581,39.400 302.140 C 39.400 302.393,39.467 302.589,39.550 302.576 C 40.029 302.501,40.200 302.664,40.200 303.194 C 40.200 303.656,40.271 303.760,40.520 303.665 C 40.890 303.523,41.193 303.909,41.197 304.528 C 41.199 304.811,41.318 304.946,41.550 304.928 C 41.790 304.909,41.919 305.069,41.962 305.438 C 42.006 305.814,42.156 305.994,42.462 306.038 C 42.739 306.077,42.923 306.265,42.964 306.550 C 43.005 306.839,43.166 307.000,43.414 307.000 C 43.706 307.000,43.800 307.140,43.800 307.578 C 43.800 308.005,43.891 308.148,44.150 308.128 C 44.382 308.109,44.563 308.315,44.688 308.736 C 44.791 309.087,45.038 309.416,45.238 309.468 C 45.472 309.529,45.600 309.749,45.600 310.090 C 45.600 310.396,45.705 310.604,45.850 310.585 C 46.425 310.510,46.600 310.626,46.600 311.078 C 46.600 311.410,46.707 311.547,46.950 311.528 C 47.190 311.509,47.320 311.669,47.362 312.039 C 47.401 312.379,47.519 312.542,47.680 312.480 C 47.988 312.362,48.437 312.853,48.357 313.220 C 48.325 313.365,48.478 313.485,48.700 313.491 C 49.001 313.498,49.115 313.658,49.162 314.139 C 49.206 314.600,49.304 314.747,49.512 314.668 C 49.700 314.596,49.889 314.765,50.051 315.150 C 50.188 315.476,50.390 315.734,50.500 315.722 C 50.610 315.710,50.789 315.903,50.897 316.150 C 51.006 316.398,51.252 316.600,51.444 316.600 C 51.645 316.600,51.843 316.803,51.913 317.081 C 51.980 317.346,52.206 317.607,52.417 317.662 C 52.640 317.721,52.800 317.937,52.800 318.181 C 52.800 318.473,52.927 318.600,53.219 318.600 C 53.462 318.600,53.679 318.759,53.737 318.982 C 53.792 319.191,54.009 319.408,54.218 319.463 C 54.441 319.521,54.600 319.738,54.600 319.981 C 54.600 320.259,54.728 320.400,54.978 320.400 C 55.215 320.400,55.404 320.587,55.482 320.900 C 55.563 321.223,55.748 321.400,56.004 321.400 C 56.288 321.400,56.400 321.535,56.400 321.878 C 56.400 322.210,56.507 322.347,56.750 322.328 C 56.971 322.310,57.123 322.465,57.164 322.750 C 57.210 323.076,57.362 323.200,57.714 323.200 C 58.067 323.200,58.200 323.310,58.200 323.600 C 58.200 323.867,58.333 324.000,58.600 324.000 C 58.862 324.000,59.000 324.133,59.000 324.386 C 59.000 324.634,59.161 324.795,59.450 324.836 C 59.739 324.877,59.923 325.061,59.964 325.350 C 60.005 325.639,60.166 325.800,60.414 325.800 C 60.662 325.800,60.800 325.938,60.800 326.186 C 60.800 326.434,60.961 326.595,61.250 326.636 C 61.539 326.677,61.723 326.861,61.764 327.150 C 61.805 327.439,61.966 327.600,62.214 327.600 C 62.467 327.600,62.600 327.738,62.600 328.000 C 62.600 328.273,62.733 328.400,63.019 328.400 C 63.262 328.400,63.479 328.559,63.537 328.782 C 63.592 328.991,63.809 329.208,64.018 329.263 C 64.241 329.321,64.400 329.538,64.400 329.781 C 64.400 330.054,64.528 330.200,64.767 330.200 C 64.968 330.200,65.201 330.268,65.283 330.350 C 65.366 330.433,65.516 330.511,65.617 330.525 C 65.717 330.539,65.890 330.561,66.000 330.575 C 66.110 330.589,66.200 330.817,66.200 331.081 C 66.200 331.464,66.282 331.541,66.600 331.458 C 66.907 331.378,67.000 331.452,67.000 331.777 C 67.000 332.095,67.124 332.200,67.500 332.200 C 67.867 332.200,68.000 332.307,68.000 332.600 C 68.000 332.893,68.133 333.000,68.500 333.000 C 68.856 333.000,69.000 333.108,69.000 333.377 C 69.000 333.585,69.179 333.800,69.400 333.858 C 69.644 333.922,69.800 334.131,69.800 334.393 C 69.800 334.630,69.882 334.773,69.982 334.711 C 70.261 334.539,70.800 334.809,70.800 335.121 C 70.800 335.275,70.938 335.400,71.106 335.400 C 71.275 335.400,71.464 335.535,71.528 335.700 C 71.591 335.865,71.813 336.000,72.021 336.000 C 72.230 336.000,72.400 336.135,72.400 336.300 C 72.400 336.471,72.580 336.600,72.819 336.600 C 73.065 336.600,73.279 336.760,73.339 336.989 C 73.395 337.203,73.630 337.405,73.862 337.439 C 74.094 337.472,74.332 337.680,74.392 337.900 C 74.451 338.120,74.635 338.329,74.800 338.365 C 74.965 338.401,75.130 338.513,75.167 338.615 C 75.203 338.717,75.406 338.800,75.617 338.800 C 75.828 338.800,76.000 338.935,76.000 339.100 C 76.000 339.287,76.189 339.400,76.500 339.400 C 76.867 339.400,77.000 339.507,77.000 339.800 C 77.000 340.093,77.133 340.200,77.500 340.200 C 77.867 340.200,78.000 340.307,78.000 340.600 C 78.000 340.826,78.133 341.000,78.306 341.000 C 78.475 341.000,78.662 341.129,78.723 341.287 C 78.783 341.445,78.961 341.526,79.117 341.466 C 79.289 341.400,79.400 341.483,79.400 341.679 C 79.400 341.891,79.576 342.000,79.919 342.000 C 80.269 342.000,80.471 342.130,80.542 342.400 C 80.600 342.621,80.815 342.800,81.023 342.800 C 81.269 342.800,81.400 342.942,81.400 343.206 C 81.400 343.652,81.644 343.797,82.511 343.863 C 82.889 343.892,83.120 344.042,83.192 344.304 C 83.254 344.531,83.471 344.700,83.700 344.700 C 83.955 344.700,84.122 344.853,84.160 345.124 C 84.206 345.442,84.430 345.593,85.060 345.729 C 85.699 345.868,85.886 345.995,85.840 346.262 C 85.791 346.546,85.877 346.588,86.290 346.485 C 86.739 346.372,86.800 346.419,86.800 346.878 C 86.800 347.308,86.896 347.404,87.350 347.423 C 88.392 347.467,88.481 347.501,88.590 347.900 C 88.653 348.130,88.870 348.300,89.100 348.300 C 89.363 348.300,89.522 348.455,89.564 348.750 C 89.618 349.132,89.750 349.200,90.433 349.200 C 91.069 349.200,91.259 349.284,91.342 349.600 C 91.400 349.821,91.615 350.000,91.823 350.000 C 92.030 350.000,92.200 350.132,92.200 350.294 C 92.200 350.486,92.315 350.543,92.535 350.459 C 92.788 350.362,92.838 350.412,92.741 350.665 C 92.636 350.939,92.740 351.000,93.306 351.000 C 93.854 351.000,94.000 351.080,94.000 351.379 C 94.000 351.810,94.373 352.000,95.216 352.000 C 95.667 352.000,95.800 352.091,95.800 352.400 C 95.800 352.690,95.933 352.800,96.286 352.800 C 96.638 352.800,96.790 352.924,96.836 353.250 C 96.890 353.631,97.023 353.700,97.700 353.700 C 98.377 353.700,98.510 353.769,98.564 354.150 C 98.619 354.539,98.747 354.600,99.514 354.600 C 100.265 354.600,100.400 354.661,100.400 354.998 C 100.400 355.309,100.579 355.424,101.227 355.527 C 101.793 355.618,102.084 355.776,102.150 356.030 C 102.223 356.310,102.436 356.400,103.023 356.400 C 103.586 356.400,103.800 356.484,103.800 356.705 C 103.800 357.062,104.662 357.440,105.095 357.274 C 105.292 357.199,105.462 357.337,105.592 357.680 C 105.778 358.168,106.169 358.319,106.966 358.211 C 107.112 358.192,107.280 358.361,107.339 358.588 C 107.439 358.971,107.935 359.121,108.751 359.015 C 108.890 358.997,109.090 359.211,109.197 359.491 C 109.360 359.920,109.517 360.000,110.195 360.000 C 110.867 360.000,111.000 360.066,111.000 360.400 C 111.000 360.740,111.133 360.800,111.886 360.800 C 112.653 360.800,112.781 360.861,112.836 361.250 C 112.889 361.624,113.043 361.710,113.750 361.761 C 114.218 361.795,114.600 361.908,114.600 362.011 C 114.600 362.115,114.758 362.201,114.950 362.203 C 115.249 362.206,115.256 362.234,115.000 362.400 C 114.777 362.544,114.905 362.600,115.500 362.617 C 116.683 362.651,117.304 362.878,117.272 363.264 C 117.250 363.537,117.429 363.600,118.222 363.600 C 119.067 363.600,119.200 363.655,119.200 364.000 C 119.200 364.341,119.333 364.400,120.100 364.400 C 120.595 364.400,121.000 364.480,121.000 364.578 C 121.000 364.676,121.158 364.743,121.350 364.728 C 121.580 364.710,121.680 364.820,121.641 365.050 C 121.592 365.345,121.741 365.400,122.591 365.400 C 123.467 365.400,123.600 365.453,123.600 365.800 C 123.600 366.134,123.740 366.203,124.450 366.220 C 125.675 366.249,126.305 366.471,126.272 366.864 C 126.250 367.129,126.420 367.201,127.072 367.203 C 128.190 367.206,128.800 367.390,128.800 367.723 C 128.800 367.921,129.080 368.000,129.786 368.000 C 130.656 368.000,130.780 368.053,130.836 368.450 C 130.893 368.853,131.028 368.906,132.129 368.959 C 133.153 369.008,133.375 369.083,133.460 369.409 C 133.549 369.747,133.741 369.800,134.881 369.800 C 135.627 369.800,136.200 369.887,136.200 370.000 C 136.200 370.110,136.267 370.189,136.350 370.176 C 136.874 370.094,137.041 370.209,136.807 370.491 C 136.600 370.741,136.787 370.791,138.133 370.841 C 139.482 370.892,139.696 370.949,139.672 371.250 C 139.648 371.552,139.833 371.600,141.022 371.600 C 141.807 371.600,142.400 371.686,142.400 371.800 C 142.400 371.910,142.591 372.000,142.824 372.000 C 143.179 372.000,143.208 372.049,143.000 372.300 C 142.782 372.562,142.952 372.600,144.352 372.600 C 145.785 372.600,145.964 372.642,146.058 373.000 C 146.152 373.361,146.331 373.400,147.867 373.400 C 149.483 373.400,149.576 373.424,149.636 373.850 C 149.697 374.280,149.793 374.302,151.839 374.357 C 153.763 374.408,153.990 374.453,154.102 374.807 C 154.216 375.165,154.414 375.200,156.318 375.200 C 158.365 375.200,158.414 375.211,158.600 375.700 C 158.785 376.187,158.842 376.200,160.770 376.200 C 163.172 376.200,164.062 376.349,163.917 376.727 C 163.832 376.949,164.294 377.000,166.381 377.000 C 169.704 377.000,171.199 377.364,169.950 377.868 C 169.813 377.923,171.613 377.976,173.950 377.984 C 176.639 377.994,178.200 378.073,178.200 378.200 C 178.200 378.332,184.167 378.400,195.700 378.400 C 207.233 378.400,213.200 378.332,213.200 378.200 C 213.200 378.074,214.561 378.000,216.884 378.000 C 220.865 378.000,221.200 377.952,221.200 377.379 C 221.200 377.023,221.392 377.000,224.319 377.000 C 227.269 377.000,227.443 376.978,227.542 376.600 C 227.640 376.227,227.815 376.200,230.128 376.200 C 232.580 376.200,232.611 376.194,232.836 375.700 C 233.059 375.211,233.114 375.200,235.232 375.200 C 237.267 375.200,237.400 375.175,237.400 374.800 C 237.400 374.428,237.533 374.400,239.281 374.400 C 241.017 374.400,241.155 374.371,241.065 374.028 C 240.949 373.583,241.629 373.400,243.402 373.400 C 244.385 373.400,244.569 373.342,244.658 373.000 C 244.753 372.637,244.931 372.600,246.563 372.600 C 248.219 372.600,248.355 372.570,248.265 372.228 C 248.151 371.789,248.828 371.600,250.512 371.600 C 251.397 371.600,251.594 371.534,251.700 371.200 C 251.809 370.855,252.003 370.800,253.100 370.800 C 254.267 370.800,254.377 370.763,254.436 370.350 C 254.494 369.942,254.624 369.895,255.829 369.841 C 256.952 369.792,257.174 369.722,257.260 369.391 C 257.349 369.054,257.540 369.000,258.663 369.000 C 259.831 369.000,259.953 368.962,259.865 368.628 C 259.760 368.224,260.418 368.000,261.712 368.000 C 262.197 368.000,262.407 367.894,262.500 367.600 C 262.610 367.255,262.803 367.200,263.913 367.200 C 265.152 367.200,265.200 367.182,265.200 366.700 C 265.200 366.233,265.266 366.200,266.212 366.200 C 266.837 366.200,267.176 366.123,267.100 366.000 C 266.931 365.727,267.857 365.400,268.799 365.400 C 269.449 365.400,269.582 365.328,269.636 364.950 C 269.694 364.545,269.827 364.494,270.971 364.440 C 272.035 364.390,272.259 364.316,272.345 363.990 C 272.424 363.686,272.622 363.600,273.242 363.600 C 273.869 363.600,274.060 363.515,274.142 363.200 C 274.200 362.980,274.326 362.789,274.423 362.775 C 274.520 362.761,274.690 362.728,274.800 362.700 C 274.910 362.673,275.215 362.639,275.477 362.625 C 275.772 362.610,275.993 362.448,276.058 362.200 C 276.146 361.863,276.332 361.800,277.231 361.797 C 277.918 361.795,278.202 361.732,278.024 361.619 C 277.681 361.402,277.938 360.933,278.320 361.080 C 278.474 361.139,278.600 361.100,278.600 360.994 C 278.600 360.887,278.968 360.800,279.419 360.800 C 280.069 360.800,280.259 360.718,280.342 360.400 C 280.427 360.077,280.615 360.000,281.323 360.000 C 282.136 360.000,282.200 359.962,282.200 359.475 C 282.200 358.999,282.256 358.961,282.798 359.070 C 283.574 359.225,284.000 359.051,284.000 358.579 C 284.000 358.263,284.150 358.200,284.900 358.200 C 285.733 358.200,285.800 358.162,285.800 357.687 C 285.800 357.251,285.882 357.181,286.350 357.217 C 287.341 357.295,287.600 357.211,287.600 356.811 C 287.600 356.497,287.763 356.411,288.450 356.361 C 289.153 356.311,289.311 356.223,289.363 355.857 C 289.414 355.495,289.548 355.418,290.082 355.438 C 290.845 355.467,291.200 355.292,291.200 354.888 C 291.200 354.718,291.395 354.600,291.678 354.600 C 292.004 354.600,292.147 354.493,292.128 354.261 C 292.108 354.016,292.330 353.875,292.929 353.754 C 293.498 353.638,293.789 353.462,293.860 353.192 C 293.940 352.885,294.136 352.800,294.767 352.800 C 295.450 352.800,295.582 352.732,295.636 352.350 C 295.685 352.002,295.836 351.896,296.300 351.884 C 297.306 351.856,297.400 351.814,297.400 351.400 C 297.400 351.107,297.533 351.000,297.900 351.000 C 298.267 351.000,298.400 350.893,298.400 350.600 C 298.400 350.319,298.534 350.199,298.850 350.197 C 299.696 350.192,300.200 349.960,300.200 349.577 C 300.200 349.341,300.341 349.200,300.577 349.200 C 300.784 349.200,300.997 349.033,301.050 348.830 C 301.116 348.576,301.407 348.418,301.973 348.327 C 302.621 348.224,302.800 348.109,302.800 347.798 C 302.800 347.512,302.934 347.400,303.277 347.400 C 303.595 347.400,303.790 347.258,303.865 346.974 C 303.938 346.694,304.081 346.588,304.282 346.665 C 304.450 346.730,304.640 346.696,304.705 346.591 C 304.770 346.486,304.998 346.400,305.212 346.400 C 305.467 346.400,305.600 346.263,305.600 346.000 C 305.600 345.704,305.733 345.600,306.112 345.600 C 306.393 345.600,306.574 345.520,306.514 345.423 C 306.393 345.227,306.857 344.769,307.129 344.815 C 307.576 344.889,308.200 344.517,308.200 344.177 C 308.200 343.908,308.344 343.800,308.700 343.800 C 309.055 343.800,309.200 343.692,309.200 343.426 C 309.200 343.144,309.396 343.020,309.987 342.925 C 310.530 342.838,310.812 342.676,310.900 342.400 C 310.970 342.180,311.201 342.000,311.413 342.000 C 311.667 342.000,311.800 341.862,311.800 341.600 C 311.800 341.307,311.933 341.200,312.300 341.200 C 312.659 341.200,312.800 341.092,312.800 340.818 C 312.800 340.528,312.992 340.403,313.588 340.302 C 314.193 340.200,314.391 340.068,314.438 339.734 C 314.476 339.468,314.666 339.276,314.930 339.239 C 315.166 339.205,315.405 339.003,315.461 338.789 C 315.518 338.569,315.735 338.400,315.958 338.400 C 316.189 338.400,316.398 338.229,316.461 337.988 C 316.520 337.761,316.688 337.591,316.834 337.609 C 317.382 337.679,318.000 337.344,318.000 336.977 C 318.000 336.708,318.144 336.600,318.500 336.600 C 318.874 336.600,319.000 336.495,319.000 336.181 C 319.000 335.938,319.159 335.721,319.382 335.663 C 319.591 335.608,319.811 335.379,319.870 335.155 C 319.947 334.859,320.090 334.777,320.388 334.855 C 320.698 334.936,320.800 334.868,320.800 334.581 C 320.800 334.250,321.029 334.092,321.279 334.250 C 321.322 334.278,321.542 334.134,321.766 333.930 C 321.991 333.727,322.270 333.620,322.387 333.692 C 322.512 333.769,322.600 333.646,322.600 333.393 C 322.600 333.131,322.756 332.922,323.000 332.858 C 323.220 332.800,323.400 332.638,323.400 332.498 C 323.400 332.204,323.949 331.945,324.218 332.111 C 324.318 332.173,324.400 331.993,324.400 331.712 C 324.400 331.333,324.504 331.200,324.800 331.200 C 325.067 331.200,325.200 331.067,325.200 330.800 C 325.200 330.510,325.333 330.400,325.686 330.400 C 326.038 330.400,326.190 330.276,326.236 329.950 C 326.271 329.703,326.435 329.500,326.600 329.500 C 326.765 329.500,326.951 329.320,327.013 329.100 C 327.083 328.848,327.287 328.706,327.563 328.716 C 327.866 328.727,328.000 328.614,328.000 328.347 C 328.000 328.136,328.172 327.918,328.382 327.863 C 328.591 327.808,328.808 327.591,328.863 327.382 C 328.919 327.165,329.137 327.000,329.367 327.000 C 329.629 327.000,329.795 326.847,329.836 326.567 C 329.882 326.255,330.121 326.072,330.692 325.913 C 331.280 325.749,331.514 325.564,331.601 325.196 C 331.665 324.923,331.849 324.700,332.009 324.700 C 332.169 324.700,332.349 324.520,332.408 324.300 C 332.468 324.080,332.710 323.872,332.946 323.838 C 333.210 323.799,333.399 323.607,333.438 323.338 C 333.477 323.064,333.631 322.910,333.850 322.928 C 334.075 322.946,334.200 322.814,334.200 322.559 C 334.200 322.333,334.369 322.118,334.593 322.060 C 334.810 322.003,335.041 321.787,335.107 321.578 C 335.216 321.234,335.442 321.112,335.850 321.176 C 335.933 321.189,336.000 321.012,336.000 320.781 C 336.000 320.535,336.160 320.321,336.389 320.261 C 336.618 320.201,336.831 319.915,336.908 319.562 C 337.010 319.099,337.126 318.986,337.420 319.063 C 337.719 319.141,337.800 319.055,337.800 318.663 C 337.800 318.325,337.935 318.127,338.215 318.054 C 338.444 317.994,338.715 317.723,338.818 317.452 C 338.939 317.133,339.110 317.000,339.303 317.073 C 339.507 317.152,339.600 317.058,339.600 316.775 C 339.600 316.531,339.763 316.320,340.000 316.258 C 340.252 316.192,340.400 315.985,340.400 315.698 C 340.400 315.242,340.876 314.900,341.218 315.111 C 341.318 315.173,341.400 314.993,341.400 314.712 C 341.400 314.339,341.505 314.200,341.786 314.200 C 342.034 314.200,342.195 314.039,342.236 313.750 C 342.277 313.461,342.461 313.277,342.750 313.236 C 343.047 313.194,343.200 313.035,343.200 312.767 C 343.200 312.545,343.361 312.320,343.558 312.269 C 343.755 312.217,344.003 311.978,344.110 311.738 C 344.217 311.497,344.461 311.312,344.652 311.328 C 344.920 311.349,345.000 311.199,345.000 310.678 C 345.000 310.061,345.132 309.910,345.548 310.050 C 345.629 310.078,345.743 309.830,345.799 309.500 C 345.873 309.070,346.030 308.882,346.351 308.836 C 346.676 308.790,346.800 308.637,346.800 308.286 C 346.800 307.933,346.910 307.800,347.200 307.800 C 347.458 307.800,347.600 307.667,347.600 307.424 C 347.600 306.974,348.099 306.514,348.391 306.695 C 348.519 306.774,348.600 306.580,348.600 306.193 C 348.600 305.731,348.707 305.535,349.000 305.458 C 349.259 305.390,349.400 305.185,349.400 304.877 C 349.400 304.505,349.507 304.400,349.887 304.400 C 350.269 304.400,350.387 304.282,350.437 303.850 C 350.480 303.470,350.608 303.309,350.850 303.328 C 351.064 303.345,351.200 303.216,351.200 302.994 C 351.200 302.367,351.430 302.000,351.821 302.000 C 352.109 302.000,352.200 301.855,352.200 301.400 C 352.200 300.940,352.290 300.800,352.587 300.800 C 352.860 300.800,352.992 300.639,353.037 300.250 C 353.082 299.856,353.228 299.682,353.550 299.636 C 353.917 299.584,354.000 299.445,354.000 298.886 C 354.000 298.341,354.080 298.200,354.387 298.200 C 354.660 298.200,354.792 298.039,354.837 297.650 C 354.882 297.256,355.028 297.082,355.350 297.036 C 355.717 296.984,355.800 296.845,355.800 296.286 C 355.800 295.741,355.879 295.600,356.187 295.600 C 356.478 295.600,356.590 295.438,356.637 294.950 C 356.685 294.458,356.806 294.285,357.138 294.238 C 357.468 294.191,357.592 294.018,357.638 293.538 C 357.683 293.074,357.795 292.908,358.050 292.928 C 358.306 292.948,358.400 292.806,358.400 292.402 C 358.400 291.854,358.824 291.290,359.059 291.525 C 359.126 291.592,359.237 291.389,359.307 291.074 C 359.528 290.072,359.597 289.956,359.902 290.073 C 360.115 290.155,360.200 290.051,360.200 289.710 C 360.200 289.026,360.400 288.600,360.721 288.600 C 360.881 288.600,361.000 288.398,361.000 288.124 C 361.000 287.592,361.472 287.097,361.791 287.295 C 361.923 287.376,362.000 287.119,362.000 286.593 C 362.000 285.931,362.081 285.741,362.400 285.658 C 362.627 285.598,362.800 285.385,362.800 285.164 C 362.800 284.559,363.197 283.956,363.515 284.078 C 363.725 284.159,363.801 284.018,363.803 283.544 C 363.807 282.778,364.069 282.295,364.378 282.486 C 364.518 282.573,364.600 282.441,364.600 282.128 C 364.600 281.371,364.804 281.000,365.221 281.000 C 365.528 281.000,365.600 280.852,365.600 280.224 C 365.600 279.557,366.142 278.612,366.230 279.126 C 366.247 279.221,366.314 278.895,366.380 278.400 C 366.478 277.663,366.582 277.488,366.950 277.436 C 367.329 277.382,367.400 277.249,367.400 276.586 C 367.400 276.154,367.490 275.800,367.600 275.800 C 367.710 275.800,367.868 275.802,367.950 275.805 C 368.033 275.808,368.145 275.380,368.200 274.855 C 368.287 274.021,368.357 273.902,368.750 273.916 C 369.151 273.930,369.200 273.836,369.200 273.047 C 369.200 272.331,369.276 272.143,369.600 272.058 C 369.920 271.974,370.000 271.785,370.000 271.117 C 370.000 270.228,370.278 269.766,370.713 269.933 C 370.904 270.006,370.994 269.769,371.038 269.067 C 371.088 268.290,371.169 268.105,371.450 268.128 C 371.737 268.151,371.801 267.988,371.803 267.228 C 371.807 266.152,372.031 265.692,372.470 265.861 C 372.721 265.957,372.791 265.783,372.840 264.940 C 372.889 264.093,372.965 263.905,373.250 263.928 C 373.535 263.950,373.600 263.790,373.600 263.065 C 373.600 262.001,373.889 261.370,374.303 261.529 C 374.544 261.621,374.600 261.429,374.600 260.503 C 374.600 259.531,374.659 259.347,375.000 259.258 C 375.329 259.172,375.400 258.985,375.400 258.201 C 375.400 257.243,375.769 256.634,376.191 256.895 C 376.328 256.979,376.400 256.566,376.400 255.693 C 376.400 254.531,376.451 254.349,376.800 254.258 C 377.141 254.169,377.200 253.985,377.200 253.017 C 377.200 251.854,377.442 251.352,377.915 251.533 C 378.117 251.611,378.195 251.307,378.240 250.268 C 378.291 249.108,378.353 248.904,378.650 248.928 C 378.952 248.952,379.000 248.768,379.000 247.594 C 379.000 245.974,379.117 245.600,379.621 245.600 C 379.961 245.600,380.000 245.437,380.000 244.000 C 380.000 242.457,380.069 242.285,380.650 242.376 C 380.733 242.389,380.800 241.687,380.800 240.816 C 380.800 238.978,380.905 238.600,381.414 238.600 C 381.744 238.600,381.791 238.398,381.842 236.750 C 381.893 235.131,381.944 234.903,382.250 234.928 C 382.564 234.953,382.600 234.728,382.600 232.759 C 382.600 230.766,382.635 230.553,382.982 230.463 C 383.492 230.329,383.594 229.851,383.597 227.566 C 383.600 225.349,383.707 224.874,384.123 225.219 C 384.357 225.413,384.400 224.964,384.400 222.341 C 384.400 219.093,384.467 218.600,384.912 218.600 C 385.129 218.600,385.193 217.592,385.241 213.384 C 385.294 208.688,385.335 208.142,385.650 207.912 C 385.974 207.675,386.000 207.013,386.000 199.000 C 386.000 190.987,385.974 190.325,385.650 190.088 C 385.335 189.858,385.293 189.302,385.233 184.515 C 385.188 180.948,385.098 179.239,384.960 179.324 C 384.528 179.592,384.406 178.793,384.403 175.672 C 384.400 172.722,384.370 172.447,384.050 172.472 C 383.741 172.497,383.686 172.221,383.577 170.100 C 383.429 167.204,383.462 167.400,383.121 167.400 C 382.694 167.400,382.600 166.934,382.600 164.806 C 382.600 163.061,382.561 162.848,382.250 162.872 C 381.944 162.897,381.893 162.669,381.842 161.050 C 381.791 159.402,381.744 159.200,381.414 159.200 C 380.906 159.200,380.800 158.822,380.800 157.006 C 380.800 155.642,380.756 155.448,380.450 155.472 C 380.145 155.496,380.093 155.275,380.042 153.759 C 379.993 152.277,379.938 152.036,379.672 152.138 C 379.194 152.322,379.006 151.828,379.003 150.372 C 379.000 149.231,378.951 149.048,378.650 149.072 C 378.351 149.096,378.291 148.888,378.241 147.644 C 378.204 146.738,378.107 146.234,377.982 146.311 C 377.533 146.588,377.200 145.944,377.200 144.799 C 377.200 143.815,377.142 143.631,376.800 143.542 C 376.451 143.451,376.400 143.269,376.400 142.107 C 376.400 141.234,376.328 140.821,376.191 140.905 C 375.765 141.169,375.400 140.556,375.400 139.576 C 375.400 139.039,375.333 138.611,375.250 138.624 C 374.683 138.713,374.600 138.540,374.600 137.276 C 374.600 136.150,374.557 135.987,374.314 136.188 C 373.918 136.517,373.600 135.888,373.600 134.780 C 373.600 134.314,373.541 133.993,373.468 134.065 C 373.154 134.380,372.800 133.691,372.800 132.764 C 372.800 132.129,372.725 131.822,372.591 131.905 C 372.169 132.167,371.800 131.557,371.800 130.598 C 371.800 129.813,371.738 129.649,371.450 129.672 C 371.169 129.695,371.088 129.511,371.039 128.745 C 371.003 128.180,370.897 127.840,370.780 127.912 C 370.377 128.162,370.000 127.548,370.000 126.642 C 370.000 126.142,369.941 125.793,369.868 125.865 C 369.565 126.168,369.200 125.494,369.197 124.626 C 369.195 123.940,369.142 123.778,368.993 124.000 C 368.680 124.468,368.200 123.698,368.200 122.728 C 368.200 122.291,368.141 121.993,368.068 122.065 C 367.805 122.329,367.400 121.734,367.400 121.082 C 367.400 120.572,367.329 120.440,367.103 120.527 C 366.765 120.656,366.400 119.892,366.400 119.054 C 366.400 118.767,366.341 118.593,366.268 118.665 C 365.991 118.942,365.600 118.318,365.600 117.598 C 365.600 117.006,365.526 116.850,365.253 116.872 C 365.011 116.892,364.850 116.678,364.722 116.165 C 364.610 115.721,364.391 115.392,364.168 115.334 C 363.885 115.260,363.800 115.046,363.800 114.407 C 363.800 113.881,363.723 113.624,363.591 113.705 C 363.253 113.914,362.800 113.395,362.800 112.799 C 362.800 112.415,362.678 112.215,362.400 112.142 C 362.084 112.059,362.000 111.869,362.000 111.237 C 362.000 110.545,361.948 110.451,361.613 110.539 C 361.299 110.621,361.201 110.506,361.094 109.938 C 361.009 109.486,360.827 109.201,360.581 109.137 C 360.298 109.063,360.200 108.858,360.200 108.341 C 360.200 107.800,360.122 107.651,359.850 107.672 C 359.607 107.692,359.480 107.529,359.436 107.140 C 359.393 106.764,359.211 106.518,358.886 106.395 C 358.502 106.249,358.400 106.066,358.400 105.527 C 358.400 105.000,358.320 104.851,358.050 104.872 C 357.795 104.892,357.683 104.726,357.638 104.262 C 357.592 103.782,357.468 103.609,357.138 103.562 C 356.806 103.515,356.685 103.342,356.637 102.850 C 356.590 102.362,356.478 102.200,356.187 102.200 C 355.879 102.200,355.800 102.059,355.800 101.506 C 355.800 100.952,355.735 100.837,355.480 100.935 C 355.090 101.085,354.807 100.682,354.803 99.972 C 354.801 99.594,354.701 99.452,354.452 99.472 C 354.212 99.491,354.072 99.314,354.002 98.900 C 353.928 98.467,353.788 98.300,353.500 98.300 C 353.200 98.300,353.069 98.125,352.976 97.600 C 352.908 97.215,352.841 96.979,352.826 97.074 C 352.765 97.483,352.200 96.703,352.200 96.210 C 352.200 95.777,352.110 95.671,351.750 95.684 C 351.403 95.696,351.286 95.574,351.237 95.150 C 351.192 94.761,351.060 94.600,350.787 94.600 C 350.477 94.600,350.400 94.459,350.400 93.888 C 350.400 93.445,350.321 93.225,350.191 93.305 C 349.905 93.482,349.400 93.030,349.400 92.598 C 349.400 92.384,349.262 92.255,349.050 92.272 C 348.810 92.291,348.681 92.131,348.638 91.762 C 348.594 91.386,348.444 91.206,348.138 91.162 C 347.868 91.124,347.677 90.935,347.639 90.670 C 347.605 90.434,347.403 90.195,347.189 90.139 C 346.907 90.066,346.800 89.863,346.800 89.407 C 346.800 89.020,346.719 88.826,346.591 88.905 C 346.306 89.082,345.800 88.630,345.800 88.199 C 345.800 88.005,345.620 87.800,345.400 87.742 C 345.139 87.674,345.000 87.469,345.000 87.153 C 345.000 86.779,344.897 86.672,344.550 86.684 C 344.236 86.695,344.082 86.571,344.039 86.270 C 344.005 86.034,343.803 85.795,343.589 85.739 C 343.335 85.673,343.200 85.464,343.200 85.137 C 343.200 84.749,343.117 84.659,342.828 84.735 C 342.541 84.810,342.428 84.692,342.333 84.216 C 342.259 83.846,342.086 83.600,341.900 83.600 C 341.719 83.600,341.542 83.362,341.475 83.026 C 341.401 82.657,341.242 82.460,341.032 82.476 C 340.852 82.489,340.617 82.303,340.510 82.062 C 340.403 81.822,340.155 81.583,339.958 81.531 C 339.761 81.480,339.600 81.255,339.600 81.033 C 339.600 80.768,339.447 80.606,339.158 80.564 C 338.891 80.525,338.674 80.318,338.608 80.038 C 338.549 79.784,338.433 79.582,338.350 79.588 C 337.882 79.625,337.800 79.556,337.800 79.122 C 337.800 78.791,337.693 78.653,337.452 78.672 C 337.261 78.688,337.017 78.503,336.910 78.262 C 336.803 78.022,336.555 77.783,336.358 77.731 C 336.160 77.679,336.000 77.453,336.000 77.225 C 336.000 76.934,335.909 76.848,335.688 76.932 C 335.478 77.013,335.339 76.908,335.261 76.611 C 335.197 76.368,334.933 76.088,334.673 75.990 C 334.403 75.887,334.200 75.645,334.200 75.427 C 334.200 75.185,334.071 75.055,333.850 75.072 C 333.631 75.090,333.477 74.936,333.438 74.662 C 333.399 74.393,333.210 74.201,332.946 74.162 C 332.710 74.128,332.468 73.920,332.408 73.700 C 332.349 73.480,332.165 73.300,332.000 73.300 C 331.835 73.300,331.671 73.098,331.636 72.850 C 331.594 72.553,331.435 72.400,331.167 72.400 C 330.931 72.400,330.719 72.234,330.658 72.000 C 330.600 71.779,330.385 71.600,330.177 71.600 C 329.916 71.600,329.800 71.457,329.800 71.134 C 329.800 70.780,329.692 70.672,329.350 70.684 C 329.029 70.695,328.882 70.571,328.836 70.250 C 328.795 69.961,328.634 69.800,328.386 69.800 C 328.106 69.800,328.000 69.661,328.000 69.291 C 328.000 69.000,327.893 68.796,327.750 68.815 C 327.233 68.882,327.000 68.791,327.000 68.523 C 327.000 68.371,326.820 68.200,326.600 68.142 C 326.370 68.082,326.200 67.869,326.200 67.641 C 326.200 67.343,325.975 67.178,325.300 66.978 C 324.579 66.765,324.400 66.623,324.400 66.263 C 324.400 65.937,324.314 65.846,324.088 65.932 C 323.880 66.012,323.739 65.911,323.665 65.626 C 323.590 65.342,323.395 65.200,323.077 65.200 C 322.739 65.200,322.600 65.087,322.600 64.814 C 322.600 64.568,322.439 64.405,322.158 64.364 C 321.915 64.329,321.668 64.120,321.608 63.900 C 321.549 63.680,321.365 63.500,321.200 63.500 C 321.035 63.500,320.871 63.298,320.836 63.050 C 320.801 62.803,320.661 62.600,320.526 62.600 C 320.071 62.600,319.200 62.103,319.097 61.784 C 319.041 61.611,318.794 61.476,318.547 61.484 C 318.210 61.496,318.104 61.391,318.115 61.059 C 318.126 60.732,318.025 60.628,317.729 60.659 C 317.478 60.685,317.286 60.551,317.214 60.300 C 317.151 60.080,316.988 59.891,316.850 59.880 C 316.271 59.834,316.200 59.781,316.200 59.400 C 316.200 59.133,316.067 59.000,315.800 59.000 C 315.580 59.000,315.400 58.918,315.400 58.819 C 315.400 58.719,315.220 58.685,315.000 58.742 C 314.693 58.822,314.600 58.748,314.600 58.423 C 314.600 58.105,314.476 58.000,314.100 58.000 C 313.733 58.000,313.600 57.893,313.600 57.600 C 313.600 57.327,313.467 57.200,313.181 57.200 C 312.951 57.200,312.721 57.043,312.671 56.850 C 312.579 56.500,311.750 56.000,311.260 56.000 C 311.117 56.000,311.000 55.865,311.000 55.700 C 311.000 55.529,310.820 55.400,310.581 55.400 C 310.331 55.400,310.121 55.239,310.058 55.000 C 310.000 54.780,309.827 54.600,309.672 54.600 C 309.518 54.600,309.289 54.375,309.164 54.100 C 308.978 53.693,308.793 53.600,308.168 53.600 C 307.548 53.600,307.400 53.527,307.400 53.222 C 307.400 52.985,307.213 52.796,306.900 52.718 C 306.601 52.643,306.400 52.449,306.400 52.237 C 306.400 51.970,306.217 51.869,305.667 51.832 C 304.758 51.771,304.600 51.677,304.600 51.194 C 304.600 50.939,304.502 50.850,304.303 50.927 C 304.108 51.001,303.937 50.861,303.808 50.520 C 303.640 50.079,303.488 50.000,302.805 50.000 C 302.149 50.000,302.000 49.930,302.000 49.622 C 302.000 49.385,301.813 49.196,301.500 49.118 C 301.225 49.049,301.000 48.907,301.000 48.802 C 301.000 48.698,300.849 48.670,300.665 48.741 C 300.412 48.838,300.362 48.788,300.459 48.535 C 300.564 48.261,300.460 48.200,299.894 48.200 C 299.346 48.200,299.200 48.120,299.200 47.821 C 299.200 47.403,298.829 47.200,298.065 47.200 C 297.731 47.200,297.528 47.066,297.458 46.800 C 297.400 46.579,297.185 46.400,296.977 46.400 C 296.770 46.400,296.600 46.268,296.600 46.106 C 296.600 45.914,296.485 45.857,296.265 45.941 C 296.008 46.040,295.961 45.989,296.064 45.722 C 296.176 45.430,296.094 45.385,295.549 45.437 C 295.005 45.490,294.890 45.427,294.836 45.050 C 294.781 44.662,294.652 44.600,293.900 44.600 C 293.148 44.600,293.019 44.538,292.964 44.150 C 292.911 43.776,292.757 43.690,292.050 43.639 C 291.363 43.589,291.200 43.503,291.200 43.189 C 291.200 42.907,291.062 42.800,290.700 42.800 C 290.380 42.800,290.200 42.687,290.200 42.488 C 290.200 42.317,290.110 42.232,290.000 42.300 C 289.890 42.368,289.800 42.274,289.800 42.090 C 289.800 41.835,289.684 41.786,289.302 41.882 C 288.889 41.985,288.451 41.856,287.806 41.439 C 287.754 41.406,287.844 41.295,288.006 41.192 C 288.219 41.057,288.103 41.005,287.582 41.003 C 287.004 41.001,286.818 40.898,286.627 40.479 C 286.419 40.022,286.306 39.973,285.717 40.084 C 285.119 40.196,285.032 40.155,284.919 39.705 C 284.811 39.274,284.679 39.200,284.018 39.200 C 283.349 39.200,283.225 39.129,283.112 38.675 C 282.994 38.207,282.907 38.163,282.302 38.261 C 281.849 38.334,281.547 38.277,281.390 38.088 C 281.260 37.932,281.075 37.854,280.977 37.914 C 280.880 37.974,280.800 37.936,280.800 37.828 C 280.800 37.721,280.913 37.588,281.050 37.532 C 281.188 37.477,280.924 37.424,280.463 37.416 C 279.811 37.403,279.599 37.312,279.500 37.000 C 279.430 36.780,279.222 36.587,279.037 36.570 C 278.851 36.554,278.565 36.522,278.400 36.500 C 278.235 36.478,277.844 36.446,277.531 36.430 C 277.146 36.410,276.929 36.271,276.858 36.000 C 276.774 35.678,276.585 35.600,275.891 35.600 C 275.148 35.600,275.019 35.537,274.964 35.150 C 274.910 34.769,274.777 34.700,274.100 34.700 C 273.423 34.700,273.290 34.631,273.236 34.250 C 273.178 33.841,273.064 33.800,271.981 33.800 C 270.884 33.800,270.775 33.759,270.593 33.283 C 270.413 32.809,270.329 32.777,269.598 32.900 C 268.838 33.029,268.800 33.010,268.800 32.518 C 268.800 32.067,268.715 32.000,268.150 31.998 C 267.001 31.994,266.000 31.756,266.000 31.487 C 266.000 31.184,265.299 30.915,264.997 31.102 C 264.775 31.239,263.600 30.790,263.600 30.568 C 263.600 30.494,263.713 30.388,263.850 30.332 C 263.988 30.277,263.538 30.224,262.850 30.216 C 261.739 30.202,261.600 30.156,261.600 29.800 C 261.600 29.442,261.467 29.400,260.322 29.400 C 259.125 29.400,259.035 29.368,258.918 28.900 C 258.800 28.431,258.712 28.400,257.496 28.400 C 256.333 28.400,256.200 28.359,256.200 28.000 C 256.200 27.641,256.067 27.600,254.900 27.600 C 254.167 27.600,253.600 27.513,253.600 27.400 C 253.600 27.290,253.423 27.200,253.206 27.200 C 252.938 27.200,252.849 27.104,252.928 26.900 C 253.024 26.650,252.792 26.600,251.521 26.600 C 250.133 26.600,250.000 26.565,250.000 26.200 C 250.000 25.845,249.867 25.800,248.825 25.800 C 247.030 25.800,246.348 25.619,246.465 25.172 C 246.553 24.836,246.420 24.798,245.081 24.775 C 244.267 24.761,243.510 24.728,243.400 24.700 C 243.290 24.672,243.110 24.639,243.000 24.625 C 242.890 24.611,242.800 24.465,242.800 24.300 C 242.800 24.064,242.500 23.995,241.400 23.975 C 240.630 23.961,239.910 23.928,239.800 23.900 C 239.690 23.873,239.520 23.839,239.423 23.825 C 239.326 23.811,239.202 23.631,239.148 23.424 C 239.062 23.095,238.799 23.038,237.007 22.966 C 235.342 22.900,234.928 22.821,234.772 22.542 C 234.609 22.252,234.250 22.200,232.404 22.200 C 230.299 22.200,230.226 22.185,230.164 21.750 C 230.102 21.313,230.026 21.298,227.472 21.244 C 225.049 21.193,224.836 21.158,224.741 20.794 C 224.643 20.421,224.453 20.400,221.133 20.400 C 217.650 20.400,217.627 20.397,217.564 19.950 L 217.500 19.500 211.750 19.447 C 208.146 19.414,206.000 19.320,206.000 19.197 C 206.000 19.070,202.326 19.000,195.700 19.000 C 189.074 19.000,185.400 19.070,185.400 19.197 M240.500 107.196 C 241.050 107.308,242.130 107.492,242.900 107.606 C 244.262 107.807,245.283 108.074,248.800 109.149 C 250.396 109.636,251.150 109.931,253.100 110.826 C 253.540 111.028,254.215 111.331,254.600 111.500 C 255.500 111.894,257.652 113.131,258.778 113.900 C 259.261 114.230,259.891 114.627,260.178 114.782 C 262.824 116.214,271.039 124.341,272.000 126.478 C 272.055 126.600,272.370 127.093,272.700 127.573 C 273.679 128.997,276.400 134.034,276.400 134.423 C 276.400 134.514,276.625 135.080,276.900 135.681 C 277.175 136.282,277.400 136.891,277.400 137.033 C 277.400 137.176,277.572 137.744,277.782 138.296 C 279.282 142.246,279.848 145.752,279.945 151.700 C 280.035 157.258,279.647 160.957,278.612 164.400 C 278.397 165.115,278.132 166.015,278.023 166.400 C 277.706 167.515,277.023 169.447,276.713 170.100 C 275.644 172.358,274.158 175.363,273.949 175.691 C 271.473 179.574,270.519 180.856,266.500 185.692 C 265.070 187.413,263.495 189.323,263.000 189.936 C 262.505 190.550,261.200 192.131,260.100 193.451 C 259.000 194.770,257.650 196.415,257.100 197.105 C 255.934 198.569,254.449 200.380,252.537 202.669 C 251.788 203.566,250.635 204.975,249.975 205.800 C 249.315 206.625,248.244 207.930,247.596 208.700 C 246.947 209.470,244.685 212.215,242.569 214.800 C 240.452 217.385,237.981 220.400,237.077 221.500 C 233.951 225.301,230.201 228.682,226.300 231.215 C 224.305 232.510,221.664 234.000,221.359 234.001 C 221.217 234.002,220.740 234.224,220.300 234.495 C 219.860 234.766,219.371 234.990,219.213 234.994 C 219.055 234.997,218.560 235.169,218.113 235.376 C 217.080 235.853,215.695 236.317,213.835 236.808 C 213.029 237.021,212.279 237.251,212.168 237.320 C 212.057 237.388,211.142 237.570,210.133 237.723 C 209.125 237.877,207.850 238.086,207.300 238.189 C 202.284 239.126,192.568 238.246,187.500 236.397 C 186.950 236.196,186.275 235.975,186.000 235.906 C 185.193 235.702,181.656 234.200,181.000 233.783 C 180.835 233.678,180.396 233.453,180.024 233.283 C 179.653 233.112,178.766 232.619,178.054 232.187 C 177.342 231.754,176.722 231.400,176.676 231.400 C 176.541 231.400,173.777 229.386,172.718 228.516 C 170.374 226.590,170.313 223.668,172.586 222.209 C 174.397 221.047,175.777 221.319,178.307 223.335 C 179.402 224.207,181.722 225.754,182.481 226.117 C 182.821 226.279,183.505 226.647,184.000 226.934 C 186.355 228.297,192.231 230.211,195.300 230.614 C 199.425 231.155,200.490 231.229,202.600 231.121 C 204.956 230.999,209.822 230.334,210.239 230.076 C 210.367 229.997,211.108 229.776,211.886 229.584 C 213.133 229.278,214.196 228.912,216.800 227.895 C 217.185 227.744,217.995 227.348,218.600 227.013 C 219.205 226.679,220.015 226.247,220.400 226.054 C 224.227 224.131,228.545 220.158,233.723 213.797 C 235.470 211.650,237.260 209.455,237.700 208.920 C 239.404 206.846,246.207 198.537,248.290 195.984 C 249.494 194.508,250.963 192.770,251.555 192.123 C 252.146 191.475,252.837 190.620,253.091 190.223 C 253.344 189.825,254.215 188.720,255.026 187.766 C 255.837 186.812,256.950 185.477,257.500 184.799 C 258.050 184.121,258.850 183.170,259.277 182.685 C 259.705 182.201,260.605 181.096,261.277 180.230 C 261.950 179.364,263.022 178.035,263.660 177.278 C 270.262 169.440,274.002 156.947,272.394 148.100 C 272.295 147.550,272.119 146.426,272.005 145.601 C 271.891 144.777,271.618 143.584,271.399 142.951 C 271.179 142.317,271.000 141.615,271.000 141.391 C 271.000 141.167,270.820 140.631,270.600 140.200 C 270.380 139.769,270.200 139.306,270.200 139.171 C 270.200 138.779,268.395 134.978,267.412 133.300 C 267.090 132.750,266.760 132.165,266.679 132.000 C 264.600 127.773,257.063 121.078,251.242 118.289 C 250.174 117.778,249.129 117.269,248.921 117.160 C 248.409 116.891,246.485 116.216,245.500 115.961 C 245.060 115.847,244.340 115.623,243.900 115.463 C 239.799 113.975,228.801 113.975,224.700 115.463 C 224.260 115.623,223.540 115.847,223.100 115.961 C 221.966 116.255,219.984 116.966,219.722 117.173 C 219.600 117.269,219.140 117.461,218.700 117.599 C 218.260 117.737,217.765 117.964,217.600 118.102 C 217.435 118.240,217.075 118.419,216.800 118.501 C 216.525 118.582,216.186 118.740,216.048 118.851 C 215.909 118.962,215.534 119.199,215.214 119.376 C 214.894 119.554,214.333 119.870,213.966 120.078 C 211.268 121.607,205.856 126.530,203.687 129.427 C 203.144 130.152,202.115 131.440,201.400 132.288 C 197.117 137.368,197.301 136.847,199.300 138.215 C 200.070 138.741,200.843 139.314,201.017 139.486 C 201.764 140.227,202.212 139.924,204.405 137.192 C 208.200 132.465,210.004 130.426,211.690 128.953 C 213.390 127.470,215.861 125.600,216.123 125.600 C 216.203 125.600,216.411 125.474,216.584 125.320 C 216.934 125.009,220.392 123.243,221.800 122.655 C 229.478 119.453,239.953 119.444,246.800 122.635 C 250.955 124.571,251.961 125.194,255.515 128.031 C 257.110 129.305,260.531 133.398,261.674 135.400 C 262.082 136.115,262.496 136.835,262.595 137.000 C 265.156 141.309,266.883 149.990,266.215 155.200 C 265.669 159.461,265.098 162.060,264.303 163.900 C 264.161 164.230,263.978 164.725,263.898 165.000 C 263.219 167.312,260.055 172.501,257.438 175.595 C 256.812 176.335,255.805 177.548,255.200 178.291 C 254.595 179.034,253.570 180.240,252.922 180.971 C 252.274 181.702,251.540 182.615,251.292 183.000 C 251.044 183.385,250.153 184.495,249.312 185.466 C 248.472 186.437,247.420 187.697,246.975 188.266 C 246.529 188.835,245.745 189.784,245.232 190.375 C 244.720 190.966,243.940 191.922,243.500 192.500 C 243.060 193.078,241.800 194.627,240.700 195.943 C 239.600 197.259,237.935 199.264,237.000 200.399 C 234.785 203.086,234.085 203.600,232.641 203.600 C 230.537 203.600,228.932 202.042,228.934 200.002 C 228.936 198.320,228.354 199.120,238.869 186.346 C 240.206 184.722,241.601 183.012,241.969 182.546 C 242.793 181.505,245.248 178.526,247.336 176.035 C 248.196 175.008,249.336 173.613,249.868 172.935 C 250.400 172.256,251.239 171.227,251.731 170.648 C 253.008 169.148,254.000 167.825,254.000 167.623 C 254.000 167.527,254.132 167.339,254.294 167.205 C 254.624 166.931,256.600 163.454,256.600 163.148 C 256.600 163.039,256.814 162.444,257.076 161.825 C 258.965 157.358,259.471 149.351,258.075 146.010 C 257.913 145.622,257.690 144.898,257.581 144.402 C 257.392 143.550,256.798 142.061,256.383 141.400 C 256.280 141.235,256.013 140.740,255.791 140.300 C 254.567 137.878,251.508 134.168,249.800 133.035 C 249.525 132.853,248.805 132.337,248.200 131.888 C 247.068 131.048,243.484 129.201,242.982 129.199 C 242.827 129.198,242.432 129.058,242.104 128.887 C 241.545 128.595,239.975 128.222,237.400 127.768 C 233.559 127.090,224.265 128.895,222.184 130.723 C 222.011 130.875,221.807 131.000,221.732 131.000 C 221.403 131.000,218.165 133.265,216.777 134.466 C 215.375 135.679,214.317 136.905,208.827 143.677 C 205.002 148.396,204.649 148.722,203.156 148.918 C 202.123 149.054,200.916 148.467,197.751 146.289 C 196.623 145.514,194.665 144.172,193.400 143.308 C 188.610 140.036,188.400 139.805,188.400 137.819 C 188.400 136.132,187.939 136.804,195.075 128.100 C 196.608 126.230,198.186 124.309,198.581 123.831 C 202.105 119.570,207.623 114.924,211.916 112.604 C 212.567 112.252,213.325 111.843,213.600 111.695 C 214.847 111.023,216.215 110.400,216.446 110.399 C 216.586 110.398,216.962 110.261,217.283 110.094 C 218.451 109.485,223.870 107.865,225.300 107.698 C 225.850 107.633,226.660 107.491,227.100 107.382 C 229.369 106.818,238.044 106.698,240.500 107.196 M186.600 160.183 C 187.535 160.411,188.512 160.598,188.771 160.599 C 189.194 160.600,191.832 161.312,193.250 161.808 C 193.553 161.913,194.093 162.100,194.450 162.222 C 199.351 163.898,208.178 169.357,209.522 171.543 C 211.062 174.048,209.248 177.200,206.266 177.200 C 205.172 177.200,204.491 176.857,202.700 175.407 C 201.930 174.784,201.041 174.100,200.724 173.887 C 199.034 172.753,197.338 171.751,196.000 171.096 C 195.175 170.692,194.252 170.239,193.949 170.090 C 193.646 169.940,192.566 169.542,191.549 169.206 C 190.532 168.870,189.295 168.460,188.800 168.296 C 183.673 166.589,174.059 166.586,168.800 168.289 C 168.305 168.450,167.495 168.710,167.000 168.867 C 163.653 169.933,159.259 172.105,156.905 173.857 C 153.713 176.232,151.260 178.559,148.220 182.095 C 145.254 185.543,142.170 189.104,140.100 191.469 C 139.110 192.600,137.580 194.367,136.700 195.395 C 135.820 196.423,134.605 197.823,134.000 198.505 C 133.395 199.188,132.315 200.438,131.600 201.282 C 130.885 202.127,129.533 203.692,128.595 204.759 C 126.969 206.611,125.972 207.763,120.856 213.697 C 119.622 215.129,117.669 217.380,116.516 218.700 C 115.364 220.020,114.179 221.460,113.883 221.899 C 113.587 222.339,113.142 222.969,112.894 223.299 C 112.302 224.089,109.800 228.585,109.800 228.860 C 109.800 228.977,109.626 229.440,109.413 229.887 C 108.887 230.992,108.217 232.916,107.992 233.962 C 107.891 234.437,107.667 235.240,107.494 235.747 C 106.688 238.123,106.205 244.067,106.565 247.200 C 107.079 251.672,107.203 252.460,107.591 253.717 C 107.816 254.446,108.000 255.188,108.000 255.367 C 108.000 255.774,109.366 259.338,110.024 260.650 C 110.121 260.843,110.277 261.157,110.371 261.350 C 110.466 261.543,110.698 261.996,110.887 262.358 C 111.698 263.905,111.687 263.887,113.115 266.100 C 113.470 266.650,114.377 267.809,115.130 268.674 C 115.884 269.540,116.700 270.547,116.945 270.912 C 117.190 271.277,117.718 271.828,118.120 272.137 C 118.521 272.447,119.491 273.265,120.275 273.956 C 122.910 276.277,126.116 278.241,130.232 280.054 C 134.248 281.823,139.812 282.901,144.900 282.896 C 147.582 282.894,152.489 282.380,153.136 282.034 C 153.337 281.927,154.023 281.742,154.660 281.624 C 155.297 281.507,156.106 281.283,156.459 281.127 C 156.812 280.971,157.505 280.707,158.000 280.541 C 161.534 279.352,164.882 277.478,168.851 274.467 C 170.542 273.183,174.252 269.484,175.142 268.194 C 175.329 267.922,176.729 266.287,178.254 264.561 C 181.419 260.975,181.380 261.130,179.448 259.870 C 178.817 259.458,178.046 258.914,177.735 258.660 C 176.700 257.818,176.888 257.668,172.639 262.726 C 165.417 271.323,158.721 275.239,148.554 276.812 C 147.336 277.000,141.979 276.956,140.500 276.745 C 139.876 276.656,138.082 276.306,136.700 276.004 C 135.250 275.688,131.859 274.447,130.603 273.774 C 130.220 273.568,129.833 273.400,129.745 273.400 C 129.656 273.400,129.340 273.235,129.042 273.033 C 128.744 272.830,127.690 272.137,126.700 271.491 C 124.159 269.834,119.813 265.529,118.500 263.370 C 118.390 263.189,118.008 262.622,117.650 262.110 C 117.293 261.599,117.000 261.107,117.000 261.018 C 117.000 260.929,116.789 260.545,116.531 260.165 C 116.273 259.784,115.996 259.209,115.915 258.887 C 115.835 258.564,115.655 258.165,115.515 258.000 C 114.913 257.290,113.376 251.508,113.013 248.590 C 112.111 241.347,114.174 232.568,118.233 226.377 C 119.876 223.871,120.152 223.496,121.300 222.200 C 123.286 219.958,123.469 219.747,125.204 217.700 C 126.851 215.756,128.601 213.743,133.825 207.781 C 135.214 206.197,136.969 204.161,137.725 203.258 C 141.080 199.254,145.005 194.844,145.660 194.344 C 147.540 192.910,150.553 193.928,151.265 196.238 C 151.824 198.049,151.491 198.853,149.000 201.717 C 145.823 205.368,141.509 210.347,138.600 213.717 C 137.005 215.565,134.286 218.702,132.559 220.689 C 127.381 226.642,126.684 227.454,125.824 228.544 C 125.371 229.118,125.000 229.653,125.000 229.731 C 125.000 229.810,124.827 230.060,124.616 230.287 C 124.155 230.783,122.200 234.550,122.200 234.943 C 122.200 235.095,122.052 235.505,121.872 235.854 C 121.692 236.203,121.429 236.986,121.287 237.594 C 121.146 238.202,120.890 239.240,120.719 239.900 C 120.374 241.230,120.271 247.848,120.572 249.300 C 121.151 252.093,122.229 254.900,123.980 258.175 C 125.261 260.570,129.912 264.923,132.900 266.523 C 133.120 266.641,133.480 266.834,133.700 266.953 C 134.828 267.559,135.786 267.965,136.408 268.099 C 136.789 268.181,137.347 268.375,137.649 268.529 C 140.624 270.049,150.255 269.516,154.500 267.597 C 156.625 266.637,157.743 266.089,158.200 265.786 C 158.475 265.603,159.227 265.116,159.871 264.702 C 161.289 263.792,165.341 259.806,167.497 257.200 C 175.338 247.723,175.458 247.672,180.719 251.549 C 181.279 251.962,182.584 252.906,183.619 253.647 C 190.145 258.320,190.231 258.405,190.363 260.220 C 190.471 261.713,190.166 262.312,188.065 264.735 C 187.128 265.816,184.817 268.484,182.930 270.664 C 176.816 277.730,172.990 281.273,169.082 283.486 C 168.762 283.668,168.140 284.031,167.700 284.293 C 165.549 285.577,160.860 287.674,159.600 287.915 C 159.215 287.989,158.566 288.218,158.158 288.424 C 157.750 288.631,157.199 288.800,156.933 288.800 C 156.668 288.800,156.089 288.927,155.647 289.083 C 152.836 290.075,144.359 290.663,140.200 290.154 C 137.296 289.799,135.489 289.499,134.200 289.159 C 131.449 288.434,129.310 287.779,128.300 287.354 C 126.148 286.448,125.088 285.977,124.800 285.798 C 124.635 285.696,123.915 285.326,123.200 284.977 C 122.485 284.628,121.632 284.153,121.304 283.921 C 120.976 283.690,120.551 283.410,120.358 283.300 C 115.778 280.684,109.075 274.007,106.100 269.097 C 105.172 267.567,103.400 264.384,103.399 264.248 C 103.398 264.167,103.258 263.832,103.087 263.504 C 101.976 261.374,100.176 255.640,99.806 253.053 C 99.699 252.309,99.486 250.980,99.333 250.100 C 98.699 246.470,99.101 238.679,100.137 234.500 C 100.301 233.840,100.556 232.805,100.704 232.200 C 101.434 229.213,103.117 225.203,105.196 221.500 C 106.431 219.301,109.565 215.027,111.086 213.470 C 111.317 213.233,112.134 212.303,112.903 211.403 C 113.671 210.503,115.651 208.221,117.302 206.333 C 118.954 204.445,120.574 202.576,120.902 202.180 C 121.231 201.784,122.400 200.434,123.501 199.180 C 124.601 197.926,125.828 196.495,126.227 196.000 C 126.626 195.505,128.110 193.782,129.526 192.171 C 131.933 189.433,133.828 187.247,139.825 180.300 C 145.901 173.260,147.679 171.430,150.700 169.111 C 152.889 167.430,158.035 164.200,158.523 164.200 C 158.598 164.200,159.119 163.983,159.680 163.717 C 161.422 162.893,163.137 162.200,163.435 162.200 C 163.592 162.200,163.806 162.114,163.911 162.009 C 164.090 161.830,164.823 161.619,167.700 160.917 C 171.392 160.017,173.976 159.626,176.276 159.618 C 176.923 159.616,177.478 159.589,177.509 159.557 C 177.748 159.317,185.132 159.826,186.600 160.183 " stroke="none" fill="#13232c" fill-rule="evenodd"></path><path id="path2" d="M229.500 107.005 C 228.620 107.103,227.540 107.273,227.100 107.382 C 226.660 107.491,225.850 107.633,225.300 107.698 C 223.870 107.865,218.451 109.485,217.283 110.094 C 216.962 110.261,216.586 110.398,216.446 110.399 C 216.215 110.400,214.847 111.023,213.600 111.695 C 213.325 111.843,212.567 112.252,211.916 112.604 C 207.623 114.924,202.105 119.570,198.581 123.831 C 198.186 124.309,196.608 126.230,195.075 128.100 C 187.939 136.804,188.400 136.132,188.400 137.819 C 188.400 139.805,188.610 140.036,193.400 143.308 C 194.665 144.172,196.623 145.514,197.751 146.289 C 200.916 148.467,202.123 149.054,203.156 148.918 C 204.649 148.722,205.002 148.396,208.827 143.677 C 214.317 136.905,215.375 135.679,216.777 134.466 C 218.165 133.265,221.403 131.000,221.732 131.000 C 221.807 131.000,222.011 130.875,222.184 130.723 C 224.265 128.895,233.559 127.090,237.400 127.768 C 239.975 128.222,241.545 128.595,242.104 128.887 C 242.432 129.058,242.827 129.198,242.982 129.199 C 243.484 129.201,247.068 131.048,248.200 131.888 C 248.805 132.337,249.525 132.853,249.800 133.035 C 251.508 134.168,254.567 137.878,255.791 140.300 C 256.013 140.740,256.280 141.235,256.383 141.400 C 256.798 142.061,257.392 143.550,257.581 144.402 C 257.690 144.898,257.913 145.622,258.075 146.010 C 259.471 149.351,258.965 157.358,257.076 161.825 C 256.814 162.444,256.600 163.039,256.600 163.148 C 256.600 163.454,254.624 166.931,254.294 167.205 C 254.132 167.339,254.000 167.527,254.000 167.623 C 254.000 167.825,253.008 169.148,251.731 170.648 C 251.239 171.227,250.400 172.256,249.868 172.935 C 249.336 173.613,248.196 175.008,247.336 176.035 C 245.248 178.526,242.793 181.505,241.969 182.546 C 241.601 183.012,240.206 184.722,238.869 186.346 C 228.354 199.120,228.936 198.320,228.934 200.002 C 228.932 202.042,230.537 203.600,232.641 203.600 C 234.085 203.600,234.785 203.086,237.000 200.399 C 237.935 199.264,239.600 197.259,240.700 195.943 C 241.800 194.627,243.060 193.078,243.500 192.500 C 243.940 191.922,244.720 190.966,245.232 190.375 C 245.745 189.784,246.529 188.835,246.975 188.266 C 247.420 187.697,248.472 186.437,249.312 185.466 C 250.153 184.495,251.044 183.385,251.292 183.000 C 251.540 182.615,252.274 181.702,252.922 180.971 C 253.570 180.240,254.595 179.034,255.200 178.291 C 255.805 177.548,256.812 176.335,257.438 175.595 C 260.055 172.501,263.219 167.312,263.898 165.000 C 263.978 164.725,264.161 164.230,264.303 163.900 C 265.098 162.060,265.669 159.461,266.215 155.200 C 266.883 149.990,265.156 141.309,262.595 137.000 C 262.496 136.835,262.082 136.115,261.674 135.400 C 260.531 133.398,257.110 129.305,255.515 128.031 C 251.961 125.194,250.955 124.571,246.800 122.635 C 239.953 119.444,229.478 119.453,221.800 122.655 C 220.392 123.243,216.934 125.009,216.584 125.320 C 216.411 125.474,216.203 125.600,216.123 125.600 C 215.861 125.600,213.390 127.470,211.690 128.953 C 210.004 130.426,208.200 132.465,204.405 137.192 C 202.212 139.924,201.764 140.227,201.017 139.486 C 200.843 139.314,200.070 138.741,199.300 138.215 C 197.301 136.847,197.117 137.368,201.400 132.288 C 202.115 131.440,203.144 130.152,203.687 129.427 C 205.856 126.530,211.268 121.607,213.966 120.078 C 214.333 119.870,214.894 119.554,215.214 119.376 C 215.534 119.199,215.909 118.962,216.048 118.851 C 216.186 118.740,216.525 118.582,216.800 118.501 C 217.075 118.419,217.435 118.240,217.600 118.102 C 217.765 117.964,218.260 117.737,218.700 117.599 C 219.140 117.461,219.600 117.269,219.722 117.173 C 219.984 116.966,221.966 116.255,223.100 115.961 C 223.540 115.847,224.260 115.623,224.700 115.463 C 228.801 113.975,239.799 113.975,243.900 115.463 C 244.340 115.623,245.060 115.847,245.500 115.961 C 246.485 116.216,248.409 116.891,248.921 117.160 C 249.129 117.269,250.174 117.778,251.242 118.289 C 257.063 121.078,264.600 127.773,266.679 132.000 C 266.760 132.165,267.090 132.750,267.412 133.300 C 268.395 134.978,270.200 138.779,270.200 139.171 C 270.200 139.306,270.380 139.769,270.600 140.200 C 270.820 140.631,271.000 141.167,271.000 141.391 C 271.000 141.615,271.179 142.317,271.399 142.951 C 271.618 143.584,271.891 144.777,272.005 145.601 C 272.119 146.426,272.295 147.550,272.394 148.100 C 274.002 156.947,270.262 169.440,263.660 177.278 C 263.022 178.035,261.950 179.364,261.277 180.230 C 260.605 181.096,259.705 182.201,259.277 182.685 C 258.850 183.170,258.050 184.121,257.500 184.799 C 256.950 185.477,255.837 186.812,255.026 187.766 C 254.215 188.720,253.344 189.825,253.091 190.223 C 252.837 190.620,252.146 191.475,251.555 192.123 C 250.963 192.770,249.494 194.508,248.290 195.984 C 246.207 198.537,239.404 206.846,237.700 208.920 C 237.260 209.455,235.470 211.650,233.723 213.797 C 228.545 220.158,224.227 224.131,220.400 226.054 C 220.015 226.247,219.205 226.679,218.600 227.013 C 217.995 227.348,217.185 227.744,216.800 227.895 C 214.196 228.912,213.133 229.278,211.886 229.584 C 211.108 229.776,210.367 229.997,210.239 230.076 C 209.822 230.334,204.956 230.999,202.600 231.121 C 200.490 231.229,199.425 231.155,195.300 230.614 C 192.231 230.211,186.355 228.297,184.000 226.934 C 183.505 226.647,182.821 226.279,182.481 226.117 C 181.722 225.754,179.402 224.207,178.307 223.335 C 175.777 221.319,174.397 221.047,172.586 222.209 C 170.313 223.668,170.374 226.590,172.718 228.516 C 173.777 229.386,176.541 231.400,176.676 231.400 C 176.722 231.400,177.342 231.754,178.054 232.187 C 178.766 232.619,179.653 233.112,180.024 233.283 C 180.396 233.453,180.835 233.678,181.000 233.783 C 181.656 234.200,185.193 235.702,186.000 235.906 C 186.275 235.975,186.950 236.196,187.500 236.397 C 192.568 238.246,202.284 239.126,207.300 238.189 C 207.850 238.086,209.125 237.877,210.133 237.723 C 211.142 237.570,212.057 237.388,212.168 237.320 C 212.279 237.251,213.029 237.021,213.835 236.808 C 215.695 236.317,217.080 235.853,218.113 235.376 C 218.560 235.169,219.055 234.997,219.213 234.994 C 219.371 234.990,219.860 234.766,220.300 234.495 C 220.740 234.224,221.217 234.002,221.359 234.001 C 221.664 234.000,224.305 232.510,226.300 231.215 C 230.201 228.682,233.951 225.301,237.077 221.500 C 237.981 220.400,240.452 217.385,242.569 214.800 C 244.685 212.215,246.947 209.470,247.596 208.700 C 248.244 207.930,249.315 206.625,249.975 205.800 C 250.635 204.975,251.788 203.566,252.537 202.669 C 254.449 200.380,255.934 198.569,257.100 197.105 C 257.650 196.415,259.000 194.770,260.100 193.451 C 261.200 192.131,262.505 190.550,263.000 189.936 C 263.495 189.323,265.070 187.413,266.500 185.692 C 270.519 180.856,271.473 179.574,273.949 175.691 C 274.158 175.363,275.644 172.358,276.713 170.100 C 277.023 169.447,277.706 167.515,278.023 166.400 C 278.132 166.015,278.397 165.115,278.612 164.400 C 279.647 160.957,280.035 157.258,279.945 151.700 C 279.848 145.752,279.282 142.246,277.782 138.296 C 277.572 137.744,277.400 137.176,277.400 137.033 C 277.400 136.891,277.175 136.282,276.900 135.681 C 276.625 135.080,276.400 134.514,276.400 134.423 C 276.400 134.034,273.679 128.997,272.700 127.573 C 272.370 127.093,272.055 126.600,272.000 126.478 C 271.039 124.341,262.824 116.214,260.178 114.782 C 259.891 114.627,259.261 114.230,258.778 113.900 C 257.652 113.131,255.500 111.894,254.600 111.500 C 254.215 111.331,253.540 111.028,253.100 110.826 C 251.150 109.931,250.396 109.636,248.800 109.149 C 245.283 108.074,244.262 107.807,242.900 107.606 C 242.130 107.492,241.050 107.308,240.500 107.196 C 239.132 106.919,231.467 106.785,229.500 107.005 " stroke="none" fill="#1b7a9a" fill-rule="evenodd"></path></g></svg>